<?xml version="1.0" encoding="UTF-8"?>
<svg xmlns="http://www.w3.org/2000/svg" xmlns:xlink="http://www.w3.org/1999/xlink" width="1280" height="720" viewBox="0 0 1280 720">
<defs>
<g>
<g id="glyph-0-0">
<path d="M 1.4375 -0.546875 L 1.4375 -3.125 L 2.3125 -3.125 C 2.34375 -2.257812 2.59375 -1.617188 3.0625 -1.203125 C 3.539062 -0.796875 4.265625 -0.59375 5.234375 -0.59375 C 6.128906 -0.59375 6.8125 -0.769531 7.28125 -1.125 C 7.757812 -1.488281 8 -2.007812 8 -2.6875 C 8 -3.238281 7.851562 -3.660156 7.5625 -3.953125 C 7.28125 -4.242188 6.679688 -4.53125 5.765625 -4.8125 L 4.265625 -5.265625 C 3.179688 -5.585938 2.414062 -5.992188 1.96875 -6.484375 C 1.53125 -6.972656 1.3125 -7.648438 1.3125 -8.515625 C 1.3125 -9.472656 1.648438 -10.21875 2.328125 -10.75 C 3.015625 -11.28125 3.976562 -11.546875 5.21875 -11.546875 C 5.738281 -11.546875 6.3125 -11.488281 6.9375 -11.375 C 7.570312 -11.257812 8.242188 -11.09375 8.953125 -10.875 L 8.953125 -8.46875 L 8.09375 -8.46875 C 8.007812 -9.269531 7.742188 -9.847656 7.296875 -10.203125 C 6.847656 -10.554688 6.164062 -10.734375 5.25 -10.734375 C 4.445312 -10.734375 3.832031 -10.566406 3.40625 -10.234375 C 2.988281 -9.910156 2.78125 -9.441406 2.78125 -8.828125 C 2.78125 -8.285156 2.9375 -7.859375 3.25 -7.546875 C 3.570312 -7.234375 4.242188 -6.925781 5.265625 -6.625 L 6.671875 -6.203125 C 7.691406 -5.898438 8.421875 -5.507812 8.859375 -5.03125 C 9.296875 -4.550781 9.515625 -3.90625 9.515625 -3.09375 C 9.515625 -2 9.160156 -1.171875 8.453125 -0.609375 C 7.753906 -0.0546875 6.707031 0.21875 5.3125 0.21875 C 4.695312 0.21875 4.066406 0.15625 3.421875 0.03125 C 2.773438 -0.09375 2.113281 -0.285156 1.4375 -0.546875 Z "/>
</g>
<g id="glyph-0-1">
<path d="M 3.1875 -4.4375 L 3.1875 -3.640625 C 3.1875 -2.671875 3.375 -1.929688 3.75 -1.421875 C 4.125 -0.910156 4.664062 -0.65625 5.375 -0.65625 C 6.082031 -0.65625 6.617188 -0.941406 6.984375 -1.515625 C 7.359375 -2.085938 7.546875 -2.929688 7.546875 -4.046875 C 7.546875 -5.160156 7.359375 -6 6.984375 -6.5625 C 6.617188 -7.132812 6.082031 -7.421875 5.375 -7.421875 C 4.664062 -7.421875 4.125 -7.164062 3.75 -6.65625 C 3.375 -6.144531 3.1875 -5.40625 3.1875 -4.4375 Z M 1.796875 -7.265625 L 0.453125 -7.265625 L 0.453125 -8.078125 L 3.1875 -8.078125 L 3.1875 -6.8125 C 3.46875 -7.320312 3.816406 -7.695312 4.234375 -7.9375 C 4.660156 -8.175781 5.1875 -8.296875 5.8125 -8.296875 C 6.800781 -8.296875 7.609375 -7.898438 8.234375 -7.109375 C 8.859375 -6.328125 9.171875 -5.304688 9.171875 -4.046875 C 9.171875 -2.773438 8.859375 -1.742188 8.234375 -0.953125 C 7.609375 -0.171875 6.800781 0.21875 5.8125 0.21875 C 5.1875 0.21875 4.660156 0.0976562 4.234375 -0.140625 C 3.816406 -0.378906 3.46875 -0.753906 3.1875 -1.265625 L 3.1875 2.421875 L 4.515625 2.421875 L 4.515625 3.234375 L 0.453125 3.234375 L 0.453125 2.421875 L 1.796875 2.421875 Z "/>
</g>
<g id="glyph-0-2">
<path d="M 3.1875 -0.8125 L 4.515625 -0.8125 L 4.515625 0 L 0.453125 0 L 0.453125 -0.8125 L 1.796875 -0.8125 L 1.796875 -11.015625 L 0.453125 -11.015625 L 0.453125 -11.828125 L 3.1875 -11.828125 Z "/>
</g>
<g id="glyph-0-3">
<path d="M 6.1875 -2.53125 L 6.1875 -4.25 L 4.390625 -4.25 C 3.691406 -4.25 3.171875 -4.097656 2.828125 -3.796875 C 2.492188 -3.492188 2.328125 -3.035156 2.328125 -2.421875 C 2.328125 -1.859375 2.5 -1.410156 2.84375 -1.078125 C 3.1875 -0.753906 3.65625 -0.59375 4.25 -0.59375 C 4.832031 -0.59375 5.300781 -0.769531 5.65625 -1.125 C 6.007812 -1.488281 6.1875 -1.957031 6.1875 -2.53125 Z M 7.59375 -5.046875 L 7.59375 -0.8125 L 8.84375 -0.8125 L 8.84375 0 L 6.1875 0 L 6.1875 -0.875 C 5.882812 -0.5 5.53125 -0.222656 5.125 -0.046875 C 4.71875 0.128906 4.242188 0.21875 3.703125 0.21875 C 2.804688 0.21875 2.09375 -0.015625 1.5625 -0.484375 C 1.039062 -0.960938 0.78125 -1.609375 0.78125 -2.421875 C 0.78125 -3.253906 1.078125 -3.898438 1.671875 -4.359375 C 2.273438 -4.828125 3.128906 -5.0625 4.234375 -5.0625 L 6.1875 -5.0625 L 6.1875 -5.609375 C 6.1875 -6.222656 6 -6.695312 5.625 -7.03125 C 5.257812 -7.375 4.738281 -7.546875 4.0625 -7.546875 C 3.507812 -7.546875 3.066406 -7.414062 2.734375 -7.15625 C 2.398438 -6.90625 2.195312 -6.535156 2.125 -6.046875 L 1.390625 -6.046875 L 1.390625 -7.671875 C 1.878906 -7.878906 2.351562 -8.035156 2.8125 -8.140625 C 3.269531 -8.242188 3.71875 -8.296875 4.15625 -8.296875 C 5.28125 -8.296875 6.132812 -8.019531 6.71875 -7.46875 C 7.300781 -6.914062 7.59375 -6.109375 7.59375 -5.046875 Z "/>
</g>
<g id="glyph-0-4">
<path d="M 0.875 -0.453125 L 0.875 -2.328125 L 1.671875 -2.328125 C 1.691406 -1.722656 1.878906 -1.269531 2.234375 -0.96875 C 2.597656 -0.675781 3.128906 -0.53125 3.828125 -0.53125 C 4.453125 -0.53125 4.929688 -0.644531 5.265625 -0.875 C 5.597656 -1.113281 5.765625 -1.460938 5.765625 -1.921875 C 5.765625 -2.273438 5.640625 -2.554688 5.390625 -2.765625 C 5.148438 -2.984375 4.644531 -3.21875 3.875 -3.46875 L 2.859375 -3.8125 C 2.171875 -4.039062 1.671875 -4.320312 1.359375 -4.65625 C 1.046875 -4.988281 0.890625 -5.410156 0.890625 -5.921875 C 0.890625 -6.660156 1.160156 -7.238281 1.703125 -7.65625 C 2.242188 -8.082031 2.992188 -8.296875 3.953125 -8.296875 C 4.378906 -8.296875 4.828125 -8.238281 5.296875 -8.125 C 5.765625 -8.019531 6.25 -7.859375 6.75 -7.640625 L 6.75 -5.875 L 5.953125 -5.875 C 5.929688 -6.40625 5.75 -6.816406 5.40625 -7.109375 C 5.0625 -7.398438 4.59375 -7.546875 4 -7.546875 C 3.40625 -7.546875 2.957031 -7.441406 2.65625 -7.234375 C 2.363281 -7.023438 2.21875 -6.710938 2.21875 -6.296875 C 2.21875 -5.960938 2.328125 -5.691406 2.546875 -5.484375 C 2.773438 -5.273438 3.234375 -5.066406 3.921875 -4.859375 L 5.03125 -4.515625 C 5.789062 -4.273438 6.335938 -3.972656 6.671875 -3.609375 C 7.015625 -3.253906 7.1875 -2.796875 7.1875 -2.234375 C 7.1875 -1.472656 6.894531 -0.875 6.3125 -0.4375 C 5.726562 0 4.921875 0.21875 3.890625 0.21875 C 3.367188 0.21875 2.859375 0.160156 2.359375 0.046875 C 1.867188 -0.0546875 1.375 -0.222656 0.875 -0.453125 Z "/>
</g>
<g id="glyph-0-5">
<path d="M 0.640625 0 L 0.640625 -0.8125 L 1.90625 -0.8125 L 1.90625 -11.015625 L 0.5625 -11.015625 L 0.5625 -11.828125 L 3.296875 -11.828125 L 3.296875 -6.640625 C 3.554688 -7.191406 3.890625 -7.601562 4.296875 -7.875 C 4.710938 -8.15625 5.195312 -8.296875 5.75 -8.296875 C 6.632812 -8.296875 7.285156 -8.039062 7.703125 -7.53125 C 8.128906 -7.019531 8.34375 -6.222656 8.34375 -5.140625 L 8.34375 -0.8125 L 9.59375 -0.8125 L 9.59375 0 L 5.734375 0 L 5.734375 -0.8125 L 6.9375 -0.8125 L 6.9375 -4.703125 C 6.9375 -5.679688 6.816406 -6.351562 6.578125 -6.71875 C 6.335938 -7.082031 5.90625 -7.265625 5.28125 -7.265625 C 4.632812 -7.265625 4.140625 -7.023438 3.796875 -6.546875 C 3.460938 -6.078125 3.296875 -5.394531 3.296875 -4.5 L 3.296875 -0.8125 L 4.515625 -0.8125 L 4.515625 0 Z "/>
</g>
<g id="glyph-0-6">
</g>
</g>
</defs>
<g fill="rgb(100%, 84.313725%, 0%)" fill-opacity="1">
<use xlink:href="#glyph-0-0" x="30" y="34.439453"/>
<use xlink:href="#glyph-0-1" x="41" y="34.439453"/>
<use xlink:href="#glyph-0-2" x="51" y="34.439453"/>
<use xlink:href="#glyph-0-3" x="56" y="34.439453"/>
<use xlink:href="#glyph-0-4" x="65" y="34.439453"/>
<use xlink:href="#glyph-0-5" x="73" y="34.439453"/>
<use xlink:href="#glyph-0-6" x="83" y="34.439453"/>
<use xlink:href="#glyph-0-0" x="88" y="34.439453"/>
<use xlink:href="#glyph-0-1" x="99" y="34.439453"/>
<use xlink:href="#glyph-0-2" x="109" y="34.439453"/>
<use xlink:href="#glyph-0-3" x="114" y="34.439453"/>
<use xlink:href="#glyph-0-4" x="123" y="34.439453"/>
<use xlink:href="#glyph-0-5" x="131" y="34.439453"/>
<use xlink:href="#glyph-0-6" x="141" y="34.439453"/>
<use xlink:href="#glyph-0-0" x="146" y="34.439453"/>
<use xlink:href="#glyph-0-1" x="157" y="34.439453"/>
<use xlink:href="#glyph-0-2" x="167" y="34.439453"/>
<use xlink:href="#glyph-0-3" x="172" y="34.439453"/>
<use xlink:href="#glyph-0-4" x="181" y="34.439453"/>
<use xlink:href="#glyph-0-5" x="189" y="34.439453"/>
</g>
</svg>
